<?xml version="1.0" encoding="utf-8"?>
<!DOCTYPE svg PUBLIC "-//W3C//DTD SVG 1.1//EN" "http://www.w3.org/Graphics/SVG/1.1/DTD/svg11.dtd">

<svg xmlns="http://www.w3.org/2000/svg" xmlns:xlink="http://www.w3.org/1999/xlink" version="1.1" id="Contours" x="0px" y="0px" width="1023.000000" height="1023.000000" viewBox="0.000000 0.000000 1023.000000 1023.000000" xml:space="preserve" stroke="black" fill="none" stroke-linecap="round" stroke-linejoin="round">
   <desc xmlns:shape="http://adobe.com/products/shape">
</desc>
   <path d="M0.0 0.0 C341.0 0.0 682.0 0.0 1023.0 0.0 C1023.0 341.0 1023.0 682.0 1023.0 1023.0 C682.0 1023.0 341.0 1023.0 0.0 1023.0 C0.0 682.0 0.0 341.0 0.0 0.0 M250.0 184.1 C215.8 168.6 181.6 153.1 147.4 137.6 C162.5 174.7 177.5 211.8 192.6 248.9 C198.4 263.0 204.2 277.9 202.7 293.1 C185.8 461.5 168.8 630.0 151.9 798.5 C144.4 798.7 136.9 798.9 129.4 799.2 C127.6 812.9 137.2 825.4 146.2 835.9 C161.9 854.4 177.6 872.8 193.3 891.3 C197.8 896.7 204.1 902.6 210.9 900.6 C211.7 887.9 212.6 875.2 213.5 862.5 C383.8 854.9 554.1 845.8 724.3 835.2 C743.2 834.1 761.3 842.1 778.6 850.0 C813.3 865.9 847.9 881.7 882.6 897.6 C869.5 865.4 856.4 833.2 843.3 801.1 C834.8 780.4 826.2 758.6 828.4 736.4 C844.3 577.1 860.2 417.9 876.1 258.6 C876.7 252.0 877.5 244.9 881.7 239.6 C885.8 234.3 894.6 232.0 899.3 236.8 C904.0 228.3 897.6 218.2 891.5 210.7 C874.0 189.3 856.5 167.8 839.1 146.4 C833.6 139.7 826.1 132.3 817.7 134.4 C821.3 149.3 820.0 171.4 804.7 172.3 C644.9 180.8 485.0 189.4 325.2 197.9 C311.6 198.6 297.8 199.3 284.4 196.7 C272.4 194.2 261.2 189.2 250.0 184.1 M174.3 124.7 C196.7 140.7 224.7 148.5 252.2 146.6 C434.8 133.8 617.3 121.0 799.9 108.2 C802.4 108.1 805.6 107.3 806.0 104.9 C806.3 102.9 804.7 101.3 803.2 100.0 C793.2 91.5 783.2 83.1 773.3 74.7 C767.2 69.5 760.9 64.3 753.4 61.4 C743.0 57.5 731.4 58.8 720.3 60.1 C538.3 81.6 356.3 103.2 174.3 124.7 M857.4 910.2 C833.3 894.2 803.9 886.5 775.2 888.5 C593.3 901.4 411.4 914.2 229.5 927.1 C227.7 927.2 225.7 927.4 224.6 928.9 C222.8 931.4 225.5 934.7 227.9 936.7 C238.9 945.6 250.0 954.6 261.0 963.5 C270.1 970.9 280.6 978.7 292.3 977.3 C480.6 954.4 668.9 932.0 857.4 910.2 M893.1 873.9 C924.5 684.9 955.9 495.9 987.4 306.9 C988.6 299.5 983.9 292.6 979.4 286.6 C966.6 269.4 953.7 252.2 940.9 235.0 C918.9 422.9 896.9 610.8 874.9 798.7 C874.0 806.2 873.1 813.8 874.3 821.3 C877.4 839.8 892.9 855.2 893.1 873.9 M89.0 799.7 C108.2 636.6 127.4 473.6 146.7 310.5 C148.8 292.4 150.9 274.4 153.1 256.3 C154.1 247.8 155.1 239.4 155.2 230.9 C155.5 207.3 148.8 183.7 136.2 163.8 C105.6 351.1 74.5 538.3 43.0 725.5 C41.2 736.0 47.8 745.9 54.2 754.5 C65.5 769.8 77.1 784.9 89.0 799.7 " fill="#000000" stroke="none"/>
   <path d="M723.5 239.3 C750.2 238.1 776.9 237.7 803.6 238.1 C806.2 238.1 809.2 238.4 810.7 240.5 C811.6 241.9 811.6 243.7 811.5 245.4 C810.8 269.0 809.2 292.6 806.8 316.1 C806.7 317.4 806.5 318.7 805.6 319.6 C804.9 320.3 803.9 320.6 802.9 320.8 C794.8 322.6 786.4 321.7 778.2 320.9 C767.4 319.7 756.7 318.6 745.9 317.4 C739.0 316.7 731.4 316.1 725.6 319.9 C723.7 318.3 723.7 315.5 723.9 313.2 C725.6 288.6 725.5 263.9 723.5 239.3 " fill="#000000" stroke="none"/>
   <path d="M286.7 717.6 C292.9 718.6 300.8 719.2 304.1 713.7 C305.1 719.8 305.2 726.0 305.3 732.1 C305.7 753.5 306.0 775.0 306.4 796.4 C279.2 796.6 252.1 796.9 224.9 797.2 C222.1 797.2 219.7 794.9 218.8 792.3 C217.8 789.7 218.0 786.8 218.2 784.0 C219.5 762.1 220.9 740.3 222.2 718.5 C222.3 717.4 222.4 716.2 223.2 715.5 C223.9 714.8 225.0 714.7 225.9 714.6 C246.2 713.4 266.6 714.4 286.7 717.6 " fill="#000000" stroke="none"/>
   <path d="M683.9 438.0 C682.1 521.9 680.3 605.8 679.9 689.7 C567.5 687.6 455.1 684.5 342.7 680.5 C344.6 671.1 344.7 661.5 344.8 652.0 C346.3 551.4 348.2 450.8 350.7 350.2 C350.7 348.9 350.8 347.5 351.8 346.6 C352.7 345.9 353.9 345.9 355.0 345.9 C465.8 348.6 576.6 351.2 687.4 353.9 C685.5 362.9 685.3 372.1 685.1 381.3 C685.0 390.4 684.8 399.6 684.6 408.7 C684.3 418.5 684.1 428.2 683.9 438.0 " fill="#000000" stroke="none"/>
   <path d="M299.9 288.0 C301.2 399.6 302.6 511.2 303.9 622.8 C304.1 633.5 304.1 644.5 300.2 654.4 C309.6 662.2 302.5 680.8 290.4 680.4 C271.1 679.8 251.8 679.2 232.5 678.6 C230.7 678.5 228.6 678.4 227.4 677.0 C226.1 675.6 226.2 673.6 226.3 671.8 C234.4 541.5 242.4 411.3 250.5 281.0 C250.7 277.4 248.5 274.0 246.3 271.1 C216.2 229.5 186.0 188.0 155.9 146.4 C193.2 175.9 230.5 205.4 267.8 234.9 C275.2 240.7 283.4 246.9 292.8 246.7 C422.0 244.4 551.1 242.2 680.2 239.9 C682.9 239.9 685.9 240.0 687.8 241.9 C689.6 243.8 689.6 246.7 689.5 249.4 C688.5 271.1 687.5 292.8 686.5 314.6 C567.3 308.1 448.1 301.6 329.0 295.1 C318.9 294.5 308.2 293.8 299.9 288.0 " fill="#000000" stroke="none"/>
   <path d="M729.8 749.0 C728.7 637.3 727.5 525.6 726.3 413.9 C726.2 402.9 726.1 391.8 728.0 380.9 C724.3 372.9 724.1 363.4 727.5 355.2 C750.7 354.3 773.9 354.8 797.1 356.7 C799.1 356.9 801.3 357.1 802.7 358.6 C804.3 360.3 804.3 362.8 804.1 365.1 C795.9 493.6 787.7 622.1 779.4 750.5 C779.0 757.8 783.4 764.3 787.7 770.1 C816.6 809.9 845.6 849.7 874.6 889.5 C836.8 859.4 799.0 829.2 761.2 799.1 C754.6 793.8 747.2 788.3 738.7 788.4 C609.0 790.7 479.2 793.0 349.5 795.2 C347.4 795.3 345.2 795.2 343.5 794.0 C341.2 792.2 341.0 788.8 341.1 785.9 C341.7 764.0 342.3 742.2 342.8 720.4 C465.6 727.3 588.3 734.3 711.1 741.2 C718.2 741.6 726.5 742.7 729.8 749.0 " fill="#000000" stroke="none"/>

</svg>